{
    "asset" : {
        "generator" : "Khronos glTF Blender I/O v3.2.43",
        "version" : "2.0"
    },
    "scene" : 0,
    "scenes" : [
        {
            "name" : "Scene",
            "nodes" : [
                0
            ]
        }
    ],
    "nodes" : [
        {
            "mesh" : 0,
            "name" : "Object.123"
        }
    ],
    "materials" : [
        {
            "doubleSided" : true,
            "name" : "skatter_rock_01 [imported]",
            "pbrMetallicRoughness" : {
                "baseColorTexture" : {
                    "index" : 0
                },
                "metallicFactor" : 0
            }
        }
    ],
    "meshes" : [
        {
            "name" : "Mesh_0",
            "primitives" : [
                {
                    "attributes" : {
                        "POSITION" : 0,
                        "NORMAL" : 1,
                        "TEXCOORD_0" : 2
                    },
                    "indices" : 3,
                    "material" : 0
                }
            ]
        }
    ],
    "textures" : [
        {
            "sampler" : 0,
            "source" : 0
        }
    ],
    "images" : [
        {
            "bufferView" : 4,
            "mimeType" : "image/jpeg",
            "name" : "Image_0"
        }
    ],
    "accessors" : [
        {
            "bufferView" : 0,
            "componentType" : 5126,
            "count" : 520,
            "max" : [
                0.20792317390441895,
                0.12515071034431458,
                0.16628670692443848
            ],
            "min" : [
                -0.18142354488372803,
                -0.1302368938922882,
                -0.1655409336090088
            ],
            "type" : "VEC3"
        },
        {
            "bufferView" : 1,
            "componentType" : 5126,
            "count" : 520,
            "type" : "VEC3"
        },
        {
            "bufferView" : 2,
            "componentType" : 5126,
            "count" : 520,
            "type" : "VEC2"
        },
        {
            "bufferView" : 3,
            "componentType" : 5123,
            "count" : 900,
            "type" : "SCALAR"
        }
    ],
    "bufferViews" : [
        {
            "buffer" : 0,
            "byteLength" : 6240,
            "byteOffset" : 0
        },
        {
            "buffer" : 0,
            "byteLength" : 6240,
            "byteOffset" : 6240
        },
        {
            "buffer" : 0,
            "byteLength" : 4160,
            "byteOffset" : 12480
        },
        {
            "buffer" : 0,
            "byteLength" : 1800,
            "byteOffset" : 16640
        },
        {
            "buffer" : 0,
            "byteLength" : 160399,
            "byteOffset" : 18440
        }
    ],
    "samplers" : [
        {
            "magFilter" : 9729,
            "minFilter" : 9987
        }
    ],
    "buffers" : [
        {
            "byteLength" : 178840,
            "uri" : "data:application/octet-stream;base64,"
        }
    ]
}
